PathFileType	4	(X/Y/Z)	C:\Users\chris\Documents\GitHub\baseballds\vids\pitch7_Sports2D\pitch7_Sports2D_m_person00.trc
DataRate	CameraRate	NumFrames	NumMarkers	Units	OrigDataRate	OrigDataStartFrame	OrigNumFrames
30	30	6	22	m	30	29	236
Frame#	Time	Hip			RHip			RKnee			RAnkle			RBigToe			RSmallToe			RHeel			LHip			LKnee			LAnkle			LBigToe			LSmallToe			LHeel			Neck			Head			Nose			RShoulder			RElbow			RWrist			LShoulder			LElbow			LWrist		
		X1	Y1	Z1	X2	Y2	Z2	X3	Y3	Z3	X4	Y4	Z4	X5	Y5	Z5	X6	Y6	Z6	X7	Y7	Z7	X8	Y8	Z8	X9	Y9	Z9	X10	Y10	Z10	X11	Y11	Z11	X12	Y12	Z12	X13	Y13	Z13	X14	Y14	Z14	X15	Y15	Z15	X16	Y16	Z16	X17	Y17	Z17	X18	Y18	Z18	X19	Y19	Z19	X20	Y20	Z20	X21	Y21	Z21	X22	Y22	Z22
29	0.9666666666666667	1.5554533260650298	0.9723090529444468	0.0	1.4465125297897654	0.9491650872894498	0.0	1.4145525693717171	0.5112612914645475	0.0	1.3634856699500186	0.14163166489525844	0.0	1.3682029884513303	-0.01107427992899299	0.0	1.3058210998659792	-0.00026485846071971875	0.0	1.3766188391290344	0.0912725513742364	0.0	1.6703948593861873	0.9474372774041812	0.0	1.715155555928692	0.5220524508648446	0.0	1.764155587657675	0.17362256221313813	0.0	1.6929841200309073	0.03737541970755959	0.0	1.7672300384556494	0.04162626488372105	0.0	1.7729613981176398	0.12742337378634022	0.0	1.5406312304731493	1.5691456010008829	0.0	1.5647883102337885	1.8419690102452184	0.0	1.6819283454204192	1.715800113905006	0.0	1.3413924766433123	1.448390317275612	0.0	1.285150614089749	1.1437691410228998	0.0	1.2658895987199918	0.8572849033470085	0.0	1.7377094994873759	1.4765844384476745	0.0	1.8268705464785202	1.2090045166399164	0.0	1.9277383263596877	0.9696096820592576	0.0
30	1.0	1.555355893326269	0.9739135201692627	0.0	1.442835679667986	0.9516010216360905	0.0	1.415357815678764	0.5104428334385746	0.0	1.3627530100328507	0.1412826083845634	0.0	1.3708250015131873	-0.004814178318488366	0.0	1.3081060132971774	0.005829043376239555	0.0	1.3739484597878724	0.09129139376769889	0.0	1.6705815654717369	0.9498459700789103	0.0	1.7134777489728346	0.5222954564127453	0.0	1.7629259720004111	0.17410662641694355	0.0	1.6931335264737881	0.03853516822284222	0.0	1.7666726956258514	0.04364391327366565	0.0	1.7704176609593647	0.12755332219249224	0.0	1.5393015990486305	1.567267824434352	0.0	1.5608296296436395	1.841947379012042	0.0	1.6818369504421884	1.716050887337307	0.0	1.3416240113602182	1.450514563159995	0.0	1.2823990862856158	1.1458030688145489	0.0	1.258629588116439	0.8581377441502414	0.0	1.7348968031162006	1.4753692271354406	0.0	1.8270280307299775	1.2068373786016136	0.0	1.9290544569696457	0.967808363954856	0.0
31	1.0333333333333332	1.555279547729289	0.97315839190688	0.0	1.441785844260326	0.9495493722086548	0.0	1.4159951506267376	0.5073742551274172	0.0	1.3633444499370502	0.13975973828940677	0.0	1.3729637369341856	7.008337839140392e-05	0.0	1.307890561262519	0.009964296947232065	0.0	1.3726081371073278	0.08700517738534613	0.0	1.6707319621378944	0.9485201790036868	0.0	1.7126927807309127	0.5190432307257147	0.0	1.7614882529322518	0.1749624002748308	0.0	1.6932463704424348	0.04077512401253396	0.0	1.766146486618331	0.04545922523686734	0.0	1.7711811830796287	0.12746787467290752	0.0	1.5388041888144455	1.5638768523625237	0.0	1.5585367907270655	1.8412925272680047	0.0	1.6810219537313986	1.7151269676086927	0.0	1.3415980755760775	1.4494346013259425	0.0	1.2831986788927194	1.1425545728529944	0.0	1.2573483119356086	0.8582181290449755	0.0	1.7349508596470267	1.4734119401972672	0.0	1.8275887501156152	1.2016040744804026	0.0	1.9303076608488252	0.9666595033858729	0.0
32	1.0666666666666667	1.5552849317323525	0.9730061546619365	0.0	1.4445208037425332	0.9492667655706487	0.0	1.4168645101123847	0.5065339295929052	0.0	1.3655601784972258	0.1400476498259529	0.0	1.3746822297122616	0.0012958872328088485	0.0	1.306898819303158	0.009785631904230586	0.0	1.37371523398675	0.0834581498872932	0.0	1.6699780399053952	0.9487815161084705	0.0	1.7138676398452886	0.5184166098810027	0.0	1.7614501788581278	0.17511355835460404	0.0	1.6947778841814192	0.0437433411276749	0.0	1.767288478319817	0.04651513034284135	0.0	1.7746014594540582	0.12576671000507253	0.0	1.539827567781419	1.562344390867142	0.0	1.561654896545442	1.8417432777555591	0.0	1.6819815748066602	1.7121453939063054	0.0	1.3411644730181698	1.4462861143458052	0.0	1.2857837836163821	1.1376183512663713	0.0	1.2607471047849401	0.854467673408964	0.0	1.7375600996817777	1.471870641827531	0.0	1.827484149124074	1.1977551922759815	0.0	1.932116769706421	0.9663624953742731	0.0
33	1.1	1.5554501413576833	0.973987884624969	0.0	1.4479876577691757	0.9535659763300149	0.0	1.419091831595478	0.510027640268176	0.0	1.3682194322322085	0.14144823444838564	0.0	1.3775238038894193	0.00036259863123918305	0.0	1.3088370086409487	0.007724362920370235	0.0	1.3754687698804795	0.08388596375694674	0.0	1.6692511841190643	0.9519439592009215	0.0	1.716523387202364	0.5215382318335287	0.0	1.7632526638805375	0.17342627337917707	0.0	1.6977659474680529	0.045571199695166674	0.0	1.7703357895142071	0.046575611104708585	0.0	1.7781809548468048	0.12312837954450252	0.0	1.5427189553128382	1.5633203074085713	0.0	1.5682852368196931	1.843258395483679	0.0	1.684845329096779	1.7083973954805307	0.0	1.3415373334121636	1.4432000210844291	0.0	1.2886831481993046	1.1355580797934837	0.0	1.2706497245388415	0.849120175186973	0.0	1.7405341253782802	1.4714881624479734	0.0	1.8275334426753127	1.1982490061552025	0.0	1.9346892823288258	0.9665087289259974	0.0
34	1.1333333333333333	1.5564596949262066	0.9742773462953676	0.0	1.4501622284976126	0.9573572739028704	0.0	1.4222608508737673	0.5155006250395008	0.0	1.37054009252434	0.14297993546367258	0.0	1.3818868943316547	0.0002555208685763692	0.0	1.3135162414063777	0.0077191619535204575	0.0	1.3772186078732098	0.08766420515963466	0.0	1.6702235691848628	0.9539211188849747	0.0	1.7189976698017488	0.5231466008151681	0.0	1.7659512699779238	0.17171085235694597	0.0	1.7000876758678816	0.04476540536391932	0.0	1.7735785959285484	0.045280843325053596	0.0	1.7808825204129493	0.12252266381934128	0.0	1.5470259197421308	1.5643137218761323	0.0	1.5743231947904215	1.8435051563179903	0.0	1.688264712309163	1.7052362315405114	0.0	1.34304636636587	1.4411515135507014	0.0	1.2925268411175037	1.1365345124275463	0.0	1.2888331653888525	0.8485011566613616	0.0	1.742652659330459	1.4715057288219755	0.0	1.828670614313571	1.2007401121834433	0.0	1.9367744387985093	0.9664262533550986	0.0
